<svg width="80" height="80" viewBox="0 0 80 80" fill="none" xmlns="http://www.w3.org/2000/svg">
<g filter="url(#filter0_dd)">
<circle cx="40" cy="30" r="24" fill="url(#paint0_linear)"/>
</g>
<g filter="url(#filter1_dd)">
<circle cx="40" cy="30" r="24" fill="url(#paint1_linear)"/>
</g>
<path fill-rule="evenodd" clip-rule="evenodd" d="M40 21C40.5523 21 41 21.4477 41 22V36C41 36.5523 40.5523 37 40 37C39.4477 37 39 36.5523 39 36V22C39 21.4477 39.4477 21 40 21Z" fill="white"/>
<path fill-rule="evenodd" clip-rule="evenodd" d="M32 29C32 28.4477 32.4477 28 33 28H47C47.5523 28 48 28.4477 48 29C48 29.5523 47.5523 30 47 30H33C32.4477 30 32 29.5523 32 29Z" fill="white"/>
<defs>
<filter id="filter0_dd" x="0" y="0" width="80" height="80" filterUnits="userSpaceOnUse" color-interpolation-filters="sRGB">
<feFlood flood-opacity="0" result="BackgroundImageFix"/>
<feColorMatrix in="SourceAlpha" type="matrix" values="0 0 0 0 0 0 0 0 0 0 0 0 0 0 0 0 0 0 127 0"/>
<feOffset dy="10"/>
<feGaussianBlur stdDeviation="8"/>
<feColorMatrix type="matrix" values="0 0 0 0 1 0 0 0 0 0.352941 0 0 0 0 0.372549 0 0 0 0.16 0"/>
<feBlend mode="normal" in2="BackgroundImageFix" result="effect1_dropShadow"/>
<feColorMatrix in="SourceAlpha" type="matrix" values="0 0 0 0 0 0 0 0 0 0 0 0 0 0 0 0 0 0 127 0"/>
<feOffset dy="4"/>
<feGaussianBlur stdDeviation="3"/>
<feColorMatrix type="matrix" values="0 0 0 0 0 0 0 0 0 0 0 0 0 0 0 0 0 0 0.06 0"/>
<feBlend mode="normal" in2="effect1_dropShadow" result="effect2_dropShadow"/>
<feBlend mode="normal" in="SourceGraphic" in2="effect2_dropShadow" result="shape"/>
</filter>
<filter id="filter1_dd" x="0" y="0" width="80" height="80" filterUnits="userSpaceOnUse" color-interpolation-filters="sRGB">
<feFlood flood-opacity="0" result="BackgroundImageFix"/>
<feColorMatrix in="SourceAlpha" type="matrix" values="0 0 0 0 0 0 0 0 0 0 0 0 0 0 0 0 0 0 127 0"/>
<feOffset dy="10"/>
<feGaussianBlur stdDeviation="8"/>
<feColorMatrix type="matrix" values="0 0 0 0 1 0 0 0 0 0.352941 0 0 0 0 0.372549 0 0 0 0.16 0"/>
<feBlend mode="normal" in2="BackgroundImageFix" result="effect1_dropShadow"/>
<feColorMatrix in="SourceAlpha" type="matrix" values="0 0 0 0 0 0 0 0 0 0 0 0 0 0 0 0 0 0 127 0"/>
<feOffset dy="4"/>
<feGaussianBlur stdDeviation="3"/>
<feColorMatrix type="matrix" values="0 0 0 0 0 0 0 0 0 0 0 0 0 0 0 0 0 0 0.06 0"/>
<feBlend mode="normal" in2="effect1_dropShadow" result="effect2_dropShadow"/>
<feBlend mode="normal" in="SourceGraphic" in2="effect2_dropShadow" result="shape"/>
</filter>
<linearGradient id="paint0_linear" x1="40" y1="6" x2="40" y2="54" gradientUnits="userSpaceOnUse">
<stop stop-color="#FF820E"/>
<stop offset="0.4375" stop-color="#FFC800"/>
<stop offset="1" stop-color="#FCDE71"/>
</linearGradient>
<linearGradient id="paint1_linear" x1="40" y1="6" x2="40" y2="54" gradientUnits="userSpaceOnUse">
<stop stop-color="#FF820E"/>
<stop offset="0.4375" stop-color="#FFC800"/>
<stop offset="1" stop-color="#FCDE71"/>
</linearGradient>
</defs>
</svg>
