<svg width="106" height="106" viewBox="0 0 106 106" fill="none" xmlns="http://www.w3.org/2000/svg">
<path d="M53 0C23.7462 0 0 23.7462 0 53C0 82.2538 23.7462 106 53 106C82.2538 106 106 82.2538 106 53C106 23.7462 82.2538 0 53 0Z" fill="white"/>
<path d="M64.2862 50.2462H61.3067C58.9591 51.4651 56.2504 52.1874 53.4515 52.1874C50.6073 52.1874 47.9438 51.5102 45.5963 50.2462H42.6167C35.3484 50.2462 29.4344 56.1601 29.4344 63.4285V80.5383H77.5136V63.4285C77.5136 56.2053 71.5545 50.2462 64.2862 50.2462Z" fill="#FFC800"/>
<path d="M67.3109 35.0324C67.3109 27.3577 61.0809 21.1729 53.4514 21.1729C45.822 21.1729 39.592 27.3577 39.592 35.0324C39.592 42.707 45.822 48.8918 53.4514 48.8918C61.0809 48.8918 67.3109 42.6618 67.3109 35.0324Z" fill="#FFC800"/>
</svg>
