<svg id="Layer_1" data-name="Layer 1" xmlns="http://www.w3.org/2000/svg" viewBox="0 0 2871 2000"><defs><style>.cls-1{fill:#f48c7f;}.cls-2{fill:#13375b;}.cls-3,.cls-9{fill:#f47458;}.cls-4{fill:#f79c8d;}.cls-5{fill:#86b1f2;}.cls-6{fill:#50bfa5;}.cls-7{fill:#355389;}.cls-8{fill:#f7a491;}.cls-14,.cls-16,.cls-9{opacity:0.5;}.cls-10{fill:#fff;}.cls-11{fill:#f7cc7f;}.cls-12{fill:#96d9c9;}.cls-13{fill:#b75742;}.cls-15,.cls-16{fill:#cae1f9;}.cls-17{fill:#ff820e;}.cls-18{fill:#3c8f7c;}.cls-19{fill:#adaeb5;}.cls-20{fill:#544c60;}.cls-21,.cls-24{fill:#eab054;}.cls-21{opacity:0.3;}.cls-22,.cls-23{fill:#9bc1f9;}.cls-23{opacity:0.2;}.cls-25{fill:#ffc800;}.cls-26{fill:#6394db;}.cls-27{fill:#f8a492;}.cls-28{fill:#e5b05c;}.cls-29{fill:#dd513a;}.cls-30{fill:#fe875e;}</style></defs><title>company-sign-in</title><path class="cls-1" d="M1371.75,1280.53c-4.47-3.74-9.86-2-25.37-9.21A93.91,93.91,0,0,0,1332,1267a1.79,1.79,0,0,1-1.36-1.29c-4.71-17.83-25.36-100.26-27.62-124-2.32-24.31-18-127.36-20.39-143a1.79,1.79,0,0,0-2.26-1.46l-45,12.56a1.81,1.81,0,0,0-1.27,2.13c2.78,12.28,20.09,89.41,25.18,128.44,4,31.12,50.41,131,51.34,137.34l0,.17a3.91,3.91,0,0,0,3.86,3.35h50.2C1366.52,1281.2,1373.15,1281.69,1371.75,1280.53Z"/><path class="cls-2" d="M1271.52,959.41c-24-72.7-50.77-69.61-50.77-69.61l20.73,152.86c14.8-4.05,34.07-13.06,48.86-17.24C1285.44,1002.44,1277.43,977.32,1271.52,959.41Z"/><path class="cls-3" d="M1264.08,770.36c-7.33-47.82-50.59-82.2-95.84-59-10.17,5.22-24,15.81-31,24.83-19,24.39-23.86,54.51-43.49,78.18a193.89,193.89,0,0,0,26.31,16.71l12.22-16.29-4.2,20.33c30.37,14.54,73.26,26.53,131.93,26.19C1267.41,828.09,1268,795.86,1264.08,770.36Z"/><path class="cls-1" d="M1278.19,1830.28c-6.91-5.09-12.48-8.46-34.54-19.15-1.43-.7-6.67-4-8.56-5.19-4.79-2.93-9.6-7.55-13.74-12.17-3.95-4.41-5.83-18.55-6.72-29.82,2.27-25.16,38.74-428.84,46.43-472.54,7.94-45.11-4.15-113.92-4.15-113.92l-28.16-10.62-53.45,185.26,4.22,141s-12.57,40.65-14.16,64.94,18.17,221.45,18.17,221.45h0c0,7-.28,13.43-1.06,17.41-1.45,7.38-9.53,22.56-5.82,29.5s7.94,8.67,7.94,8.67l96,1.55C1285.86,1836.76,1282.41,1833.38,1278.19,1830.28Z"/><path class="cls-4" d="M1132.42,1163s-33.35,50.31-41.29,92,5.83,169.61-9.45,224.17c-8.27,29.54-39.61,75.16-44.37,113.32S1016,1740.8,1016,1740.8h0c-2.51,11.57-6.44,25.87-11.54,32.52-3.12,4.07-8.83,9.22-12.57,16.58-5.83,11.45-2.6,28.5,1.69,37.89,2.21,4.82-.15,4.8,4.87,6.36,14.88,4.6,30.7-3.15,37-17.43a88.79,88.79,0,0,0,7.26-32,149.45,149.45,0,0,1,5.26-33.86h0l106.6-261.51,77.18-225.69,19.77-116.23Z"/><path class="cls-5" d="M1038.34,1809.21c-23.07,4.22-38.43-9.31-46.41-19.44-5.87,11.47-8.73,28.59-4.42,38,3.8,8.3,14.91,8.06,23.65,8.39,9.24.34,16.39-4.81,21-12.87A77.4,77.4,0,0,0,1038.34,1809.21Z"/><path class="cls-5" d="M1235.08,1805.93c-25.4,6.53-44.18,2.09-54.68-2.15-2.71,7.69-6.3,17.34-4.4,22.91,2.33,6.81,5.65,8.36,8.59,8.43,23.2.61,85,1.44,102.67,1.68a2.9,2.9,0,0,0,2.25-4.77C1285.12,1826.78,1237,1807.09,1235.08,1805.93Z"/><path class="cls-6" d="M1154.05,1484.4l6,.38.31,0,6,.34.36,0,6,.28h.31c2,.09,4.09.17,6.13.24,22.77.74,50.89.45,68.93-2.61,9.2-92.09,12.63-176.13,16-194.73,8.26-45.11-7.19-116.31-7.19-116.31l-7.38-1.32,4.66-26.37L1130.33,1160s-34.68,50.31-42.94,92,6.06,169.6-9.83,224.17C1077.56,1476.09,1112.93,1481.6,1154.05,1484.4Z"/><path class="cls-7" d="M1159.42,876.75s-38.91-5.08-56.38,14,33.5,172.32,36.68,196.61-16.19,88.87-16.19,88.87,103.73,20.93,133.38,1.26c0,0,3.17-174.66,0-192s-29.65-87.91-36-94.85S1159.42,876.75,1159.42,876.75Z"/><path class="cls-8" d="M1174.12,817.61s-.23,1.31-.64,3.52c-2,10.64-9.55,45.94-14.67,55.65-6.19,11.72,21.19,49.13,47.54,44.56,7.85-1.36-6.63-34.36-5.93-37.86,1.33-6.69,3.13-15.82,5-25.19,1-5.28,2.1-10.63,3.09-15.66,2.82-14.31,5.12-26,5.12-26Z"/><path class="cls-9" d="M1173.48,821.13c.41-2.21.64-3.52.64-3.52l39.49-1s-2.3,11.69-5.12,26c-1,5-2,10.32-3.07,15.58-6.1-.9-12.47-3.87-18.86-9.48a50,50,0,0,1-14.28-21.29C1172.77,824.94,1173.17,822.78,1173.48,821.13Z"/><path class="cls-8" d="M1200.7,727.65s-18.61-2.16-30.28,13-24.24,61.89,4.74,87.32,57.62-3.35,61.86-33.87S1242.92,726.55,1200.7,727.65Z"/><path class="cls-8" d="M1245.6,793.62c-3.46,6.74-9.27,10.47-13,8.33s-3.9-9.33-.44-16.07,9.26-10.47,13-8.34S1249.06,786.88,1245.6,793.62Z"/><path class="cls-3" d="M1202.78,722.65s-24.87,44.47-42.66,46.53S1140,794.87,1140,794.87s6.36-54.46,24-65S1202.78,722.65,1202.78,722.65Z"/><path class="cls-8" d="M1164.79,780.36c1.45,7.89-1.46,15.14-6.5,16.17S1148,792,1146.55,784.11s1.46-15.14,6.5-16.18S1163.34,772.46,1164.79,780.36Z"/><path class="cls-10" d="M1186.7,809.05l26.91,5.29s-2.63,10.1-14.53,8.11C1184.57,820,1186.7,809.05,1186.7,809.05Z"/><path class="cls-8" d="M906,1030.15c-1.64-3.9,17.54-8.33,18.32-12.42s-24.74-2.82-25.87-6.3c-2.09-6.42,27.86-3.12,27.08-6.14S894,997.36,897,991.92s31.32,8.43,31.92,4.82-27.54-10.52-27.53-18.33c0-4.18,46.61,17.92,51.7,15.33s-7-21.47-3-24.64,18.59,38.75,21.55,40,66,32.18,88,36.35c2.17-7.42,18.67-47.06,20.56-54.07,12.69,7.89,26.9,8.89,39.94,16-7.66,23.34-35.37,81.36-41.53,84.61-18.73,9.92-97.14-47.25-112.68-56.9s-23.86-5.69-34.14-8.4S907.64,1034.05,906,1030.15Z"/><path class="cls-2" d="M1114.26,1048.08s40.16-80.78,41.37-108.92-26.84-59.62-51.18-54.19-43.78,135.28-43.78,135.28Z"/><path class="cls-1" d="M1960.75,1264.75l130.31-33.57a1147.25,1147.25,0,0,1,74.6-120c14.51,14.36,22.57,36.42,37.18,50.63L2117.92,1269c-3.91,4.33-167.09,20.81-167.09,20.81Z"/><path class="cls-11" d="M2163.17,959.67c-1-24.72,2.62-49.14,13.68-72.16,9.52-19.81,33.07-31,54.55-31.07,68.19-.09,76.87,90,120.28,124.77,13.26,10.62,28.09,19.27,40.64,30.72,46.35,42.29,25.47,120.58-17.09,157.65-29.53,25.73-75.94,40.35-112.34,20.24-19-10.5-33.43-28-43.7-47.08-14.59-27.13-24-58.45-34.36-87.37C2173.79,1024.59,2164.54,992.54,2163.17,959.67Z"/><path class="cls-12" d="M2188.76,1187.85s51.17-52.47,64.33-75.26-9-8-31.57-13.95c-8.56-2.27-6.4-52.45-22.58-36.14C2172.39,1089.26,2139,1136,2139,1136Z"/><path class="cls-1" d="M863.75,1262.13c1.59-2.41-2.31-6.55-5.23-9.65-3.24-3.44-23-12.19-26.33-13.25s-32.26,2.75-43.35,6.27-18.35,2-18.35,2c-2.89-.62-7.24-1.45-10.61-2.18L755.8,1271c26-.09,50,2.08,52.42,2,7.8-.13,22.15-8.15,25.48-9.32s10-.16,14.51,2,17.58,7.31,19.79,6.16S863.75,1262.13,863.75,1262.13Z"/><path class="cls-1" d="M795.22,1243.83l-145.86-36.59a1214.91,1214.91,0,0,0-79.06-127.13c-15.37,15.22-23.92,38.6-39.4,53.66l81.6,111c4.14,4.58,185.48,24.52,185.48,24.52Z"/><path class="cls-13" d="M581,1195.16s-42-56.05-57.28-82.57,10.44-9.26,36.74-16.23c10-2.65,1.71-57,20.54-38.06,30.89,31.13,61.86,98.57,61.86,98.57Z"/><g class="cls-14"><path class="cls-15" d="M2169.75,508.92H2518a30.8,30.8,0,0,1,30.75,30.85V743.36A30.8,30.8,0,0,1,2518,774.21H2274.33c-15.67,21.94-44.07,61.22-46.58,61.22-2.34,0,2.17-37.1,5.36-61.22h-63.36A30.8,30.8,0,0,1,2139,743.36V539.77A30.8,30.8,0,0,1,2169.75,508.92Z"/></g><path class="cls-16" d="M594.84,563.46H247.09a30.76,30.76,0,0,0-30.71,30.81V797.56a30.76,30.76,0,0,0,30.71,30.81H490.42c15.64,21.91,44,61.13,46.5,61.13s-2.16-37-5.34-61.13h63.26a30.76,30.76,0,0,0,30.71-30.81V594.27A30.76,30.76,0,0,0,594.84,563.46Z"/><path class="cls-12" d="M1212.22,349.43H864.46a30.76,30.76,0,0,0-30.7,30.81V583.53a30.76,30.76,0,0,0,30.7,30.81h243.33c15.65,21.91,44,61.13,46.51,61.13s-2.17-37.05-5.35-61.13h63.27a30.75,30.75,0,0,0,30.7-30.81V380.24A30.76,30.76,0,0,0,1212.22,349.43Z"/><rect class="cls-10" x="875.82" y="408.46" width="113.64" height="13.92" rx="0.86"/><rect class="cls-10" x="875.82" y="453.94" width="69.31" height="13.92" rx="0.86"/><rect class="cls-10" x="964.08" y="453.94" width="81.88" height="13.92" rx="0.86"/><rect class="cls-10" x="1068.28" y="453.94" width="132.02" height="13.92" rx="0.86"/><rect class="cls-10" x="1025.5" y="408.46" width="175.37" height="13.92" rx="0.86"/><rect class="cls-10" x="875.82" y="543.01" width="325.04" height="13.92" rx="0.86"/><rect class="cls-10" x="875.82" y="499" width="147.46" height="13.92" rx="0.86"/><rect class="cls-10" x="1052.07" y="499" width="148.8" height="13.92" rx="0.86"/><path class="cls-17" d="M1624.48,318.22h321a30.75,30.75,0,0,1,30.7,30.81V552.32a30.75,30.75,0,0,1-30.7,30.81H1728.91c-15.64,21.91-44,61.13-46.51,61.13s2.17-37,5.35-61.13h-63.27a30.75,30.75,0,0,1-30.7-30.81V349A30.75,30.75,0,0,1,1624.48,318.22Z"/><path class="cls-10" d="M1940.5,422.72H1784.42a1,1,0,0,0-1,.95v12a1,1,0,0,0,1,.95H1940.5a1,1,0,0,0,1-.95v-12A1,1,0,0,0,1940.5,422.72Z"/><rect class="cls-10" x="1629.12" y="422.72" width="132.02" height="13.92" rx="0.86" transform="translate(3390.27 859.37) rotate(180)"/><rect class="cls-10" x="1628.57" y="377.25" width="175.37" height="13.92" rx="0.86" transform="translate(3432.5 768.42) rotate(180)"/><rect class="cls-10" x="1833.61" y="377.25" width="107.83" height="13.92" rx="0.86" transform="translate(3775.06 768.42) rotate(180)"/><polygon class="cls-10" points="1628.57 525.72 1941.44 525.72 1941.44 525.72 1941.44 511.8 1628.57 511.8 1628.57 525.72"/><rect class="cls-10" x="1792.65" y="467.78" width="148.8" height="13.92" transform="translate(3734.09 949.49) rotate(180)"/><rect class="cls-10" x="1629.12" y="467.78" width="148.8" height="13.92" transform="translate(3407.04 949.49) rotate(180)"/><path class="cls-8" d="M637.61,1768.78s-2.23,36.84-2.24,36.92c-.82,4.67-4,16.23-4,20.48,0,16,75.84-13.56,58.85-20.64-1.54-.64-9.6-5.49-10.11-10.92-.78-8.38-2.76-25.32-2.76-25.32Z"/><path class="cls-13" d="M687,1802.39s-17.81,4.89-26.93,6.11-21.14-9.07-27.59-6.29c-7.1,3.06-6.83,30.58-6.83,30.58s95.49,7.84,122.35-.27C758.62,1829.31,723.39,1813.77,687,1802.39Z"/><path class="cls-8" d="M766.36,1768.78s-2.23,36.84-2.24,36.92c-.82,4.67-4,16.23-4,20.48,0,16,75.85-13.56,58.85-20.64-1.54-.64-13-2.67-13.53-8.11-.78-8.37-2.23-34.28-2.23-34.28Z"/><path class="cls-13" d="M815.74,1802.39s-17.81,4.89-26.93,6.11-21.14-9.07-27.59-6.29c-7.1,3.06-6.82,30.58-6.82,30.58s95.49,7.84,122.34-.27C887.38,1829.31,852.14,1813.77,815.74,1802.39Z"/><path class="cls-18" d="M522,1373.62l181.29.78s81.9-2.14,94.85,26.18,9.86,388,9.86,388-43.71,6.5-45.95,4.1l-49.22-215.34a152,152,0,0,1-5.28-56.24l4.7-50.08-74.81,3.82s-84.81-1.35-112.77-29.48S522,1373.62,522,1373.62Z"/><path class="cls-6" d="M399.14,1353.63l194.94,12s83.89,6.81,96.84,35.13-8.27,391.08-8.27,391.08-48.66,3-48.56.87c.12-2.54-20-166.17-31.12-218a182.28,182.28,0,0,1-3.68-50.08l7-58.07s-181.07-1-190.06-10.07C388.31,1428.33,399.14,1353.63,399.14,1353.63Z"/><path class="cls-3" d="M576.48,1054.58c-27.13-8.22-78-12.53-78-12.53s-31.86-5.18-42.22-2.93c-15.24,3.3-43.85,4.81-46.52,71-1.9,47.34-7.29,164.46-12.69,243.55l194,11.78C582.33,1243.72,602.18,1062.37,576.48,1054.58Z"/><path class="cls-8" d="M525,985.52l-30.47,56s22.95,40.91,44.67,42c18.22.92,15.35-26,15.35-26s2.87-34.82,11.62-50.42S525,985.52,525,985.52Z"/><path class="cls-3" d="M527.82,1008c6.84,7.29,18.27,16.91,30.66,23,1.8-8.75,4.31-17.78,7.73-23.87,4-7.2-4.43-12.35-14.71-15.82-13.77-3.66-26.46-5.79-26.46-5.79l-5.86,10.77C520.67,1000.07,525.54,1005.54,527.82,1008Z"/><path class="cls-8" d="M540.7,891.12c-1.26-.9-31.32,69.16-18.28,94.37s47.48,41.84,64.87,29.69c19.24-13.44,40.29-91.87,17.08-120.53S540.7,891.12,540.7,891.12Z"/><path class="cls-11" d="M604.19,852.65c-23.63-1.66-41.92,8-48.87,12.32-10.48-1.62-25.85.15-46.67,19.78-25.6,24.14-21.6,59.89-5.59,81.34s10.66,39.6,10.66,39.6l5.85-8.53a54.7,54.7,0,0,0,8.73-21.49,45,45,0,0,0,.41-14.26c-2-11.9,15.42-14.6,22.19-22.16,5.21-5.82,9.67-21.22,18-30.91l8.64-6.77s17.62-7.24,30.9-.12S634.51,854.79,604.19,852.65Z"/><path class="cls-8" d="M546.35,951.94C544,960.86,538,967,532.81,965.66s-7.44-9.65-5.12-18.57,8.38-15.07,13.53-13.73S548.67,943,546.35,951.94Z"/><path class="cls-10" d="M570.86,980.86l28.46,6.36s-3.07,10.66-15.67,8.23C568.3,992.48,570.86,980.86,570.86,980.86Z"/><ellipse class="cls-19" cx="423.3" cy="764.7" rx="31.08" ry="19.25"/><path class="cls-11" d="M423.3,355.72a140.13,140.13,0,0,1,91.79,246c-.11.11-21.89,23.66-25.49,48.32L489,665.14a21.1,21.1,0,0,1-5.49,13.33c-.29.33-.6.64-.91.94H364.06c-.31-.3-.62-.61-.91-.94a21.1,21.1,0,0,1-5.49-13.33L357,650.05c-3.6-24.66-25.38-48.21-25.49-48.32a140.13,140.13,0,0,1,91.78-246Z"/><path class="cls-20" d="M417.67,679.41h11.27a53.91,53.91,0,0,1,53.91,53.91v33.53a0,0,0,0,1,0,0H363.76a0,0,0,0,1,0,0V733.32a53.91,53.91,0,0,1,53.91-53.91Z" transform="translate(846.61 1446.26) rotate(-180)"/><path class="cls-21" d="M388.18,603a140.22,140.22,0,0,0,112.38-224,140.14,140.14,0,0,1,14.53,222.8c-.11.11-21.89,23.66-25.49,48.32L489,665.14a21.1,21.1,0,0,1-5.49,13.33c-.29.33-.6.64-.91.94H364.06c-.31-.3-.62-.61-.91-.94a21.1,21.1,0,0,1-5.49-13.33L357,650.05c-3.6-24.66-25.38-48.21-25.49-48.32A141.24,141.24,0,0,1,311.27,580,139.49,139.49,0,0,0,388.18,603Z"/><polygon class="cls-10" points="424.29 563.8 452.13 442.36 476.57 513 483.74 510.52 450.65 414.88 422.24 538.8 393.14 467.77 366.19 513.27 372.72 517.13 391.9 484.74 424.29 563.8"/><path class="cls-20" d="M459.38,697.67l.67.07a6.4,6.4,0,0,0,7-5.71l19.48-188a6.41,6.41,0,0,0-5.72-7l-.66-.07a6.4,6.4,0,0,0-7,5.71l-19.48,188A6.41,6.41,0,0,0,459.38,697.67Z"/><path class="cls-20" d="M386.82,697.71h0a6.74,6.74,0,0,1-7.4-6L360,504.33a6.75,6.75,0,0,1,6-7.4h0a6.74,6.74,0,0,1,7.4,6l19.41,187.37A6.75,6.75,0,0,1,386.82,697.71Z"/><rect class="cls-19" x="358.67" y="679.41" width="129.19" height="13.18" rx="5.97" transform="translate(846.53 1372.01) rotate(180)"/><rect class="cls-19" x="358.67" y="705.84" width="129.19" height="13.18" rx="5.97" transform="translate(846.53 1424.86) rotate(-180)"/><rect class="cls-19" x="365.53" y="735.41" width="115.47" height="13.18" rx="5.97" transform="translate(846.53 1484.01) rotate(180)"/><path class="cls-8" d="M720.58,1246.65,570.7,1207s-45.88-51.86-89-111.54c-15.4,12.74-22,46.37-37.45,59l99,98.5c3.43,4.56,169.77,16.34,169.77,16.34Z"/><path class="cls-13" d="M478.47,1205s-51-64.75-63.39-90.18.85-65.67,25.55-70.43,96.21,111.39,96.21,111.39Z"/><path class="cls-8" d="M813.48,1267c1.6-2.13-1.76-6.17-4.29-9.19-2.8-3.35-20.52-12.5-23.56-13.67s-29.92.76-40.34,3.4-17,.8-17,.8c-2.63-.73-6.6-1.74-9.67-2.6l-8,23.32c23.94,1.35,48.82,4.85,51.1,5,7.19.31,20.88-6.3,24-7.2s9.26.41,13.28,2.64,15.81,7.71,17.91,6.77S813.48,1267,813.48,1267Z"/><path class="cls-22" d="M2505.8,478c-9.35-.44-18.72-.54-28.05-1.17a6.77,6.77,0,0,1-4.8-3.13c-4.75-9.74-8.95-19.76-13.77-29.46-1.4-2.83-1.65-4.6.31-7.18,6.91-9.07,13.58-18.32,20.33-27.51,1.09-1.49,2.13-3,4-5.65l-38.19-33.64C2435.43,379.66,2426,388,2417,396.75c-3.18,3.08-5.46,3.88-9.92,1.9-9.12-4-18.8-6.8-28.15-10.37a6.13,6.13,0,0,1-3.31-3.92c-2.06-11.38-4.13-22.78-5.48-34.26-.66-5.51-3-7.23-8.13-6.88a31.83,31.83,0,0,1-5.93-.69L2329.53,344a16.69,16.69,0,0,1-2.82,1c-10.15,1.62-8.55.73-9,10.33-.59,11.69-1,23.39-1.4,33.54l-38.16,18.61-34.91-25.62c-13.46,10.9-24.13,23.73-33.54,38.05,9.23,10,18.2,19.79,27.25,29.5,1.62,1.75,2.23,3,1.17,5.68-4.17,10.37-8.07,20.87-11.51,31.5-1,3.07-2.33,3.89-5.14,4.31-11.62,1.74-23.19,3.76-34.8,5.55-2.88.44-4.33,1.42-4.66,4.71-1.5,14.74.17,29.21,3.08,43.63.58,2.85,2.32,3.18,4.79,3.25,11.4.34,22.79,1,34.2,1.2,3.28.08,4.8.94,6.19,4.28,4.79,11.55,10.26,22.82,15.89,35.12l-24.58,33.49a151.72,151.72,0,0,0,38.12,34.31l31-28.88C2302.32,631.23,2313,635,2324,638c4.12,1.14,5.79,2.88,6.33,7.07,1.44,11.14,3.32,22.22,5.14,33.31.35,2.19.2,5.09,3.83,4.87q22.13-1.37,44.25-2.7c3.14-.2,4.15-1.91,4.22-5,.28-11.57,1.07-23.13,1.15-34.7,0-4.46,2.12-5.9,5.76-7.5a264.1,264.1,0,0,0,26.43-13c3.66-2.11,5.55-2,8.72.49,10.19,7.92,20.69,15.45,30.85,23,8.94-5.45,28.64-27.91,34.1-38.7-9-9.57-18-19.35-27.21-28.86-2.31-2.38-2.21-4.07-1.11-7,3.55-9.52,6.44-19.29,9.89-28.85a6.72,6.72,0,0,1,4.2-3.8c10.22-1.79,20.51-3.23,30.8-4.67,5.75-.8,8.07-1.11,9.1-3.34l-2.52-47.07C2516.17,478.55,2513.36,478.4,2505.8,478Zm-78.43,30.71a76.3,76.3,0,0,1-72.1,80.27h0a76.3,76.3,0,0,1-80.27-72.1h0a76.29,76.29,0,0,1,72.1-80.26h0a76.29,76.29,0,0,1,80.27,72.09Z"/><path class="cls-23" d="M2716.47,596.61c-3.84-1.54-7.72-3-11.52-4.57a3,3,0,0,1-1.54-2c-.56-4.75-.85-9.54-1.44-14.29-.18-1.38,0-2.15,1.17-2.94,4.21-2.77,8.33-5.65,12.49-8.5.67-.46,1.33-.95,2.48-1.77-3.66-6.52-7.29-13-11-19.59-5.61,2.42-10.75,4.53-15.79,6.85-1.78.81-2.84.81-4.41-.66-3.22-3-6.85-5.58-10.22-8.43a2.66,2.66,0,0,1-.81-2.11c.81-5.05,1.6-10.1,2.71-15.08.54-2.39-.21-3.46-2.38-4a13.66,13.66,0,0,1-2.37-1.16L2662.58,515a7.27,7.27,0,0,1-1.32,0c-4.47-.8-3.67-.94-5.27,3-1.95,4.79-3.82,9.6-5.48,13.77L2631.9,534l-10.81-15.77a71.79,71.79,0,0,0-19.53,11c2.39,5.51,4.7,10.9,7.05,16.26a2,2,0,0,1-.34,2.54c-3.25,3.71-6.41,7.52-9.39,11.45a2.33,2.33,0,0,1-2.77,1c-5.09-1-10.21-1.82-15.31-2.76a2,2,0,0,0-2.63,1.28,64.26,64.26,0,0,0-5.08,18.63c-.17,1.27.5,1.66,1.52,2,4.7,1.81,9.36,3.72,14.08,5.49a2.53,2.53,0,0,1,1.95,2.69c.31,5.51,1,11,1.5,16.95L2577,615.17A67.09,67.09,0,0,0,2587.89,635l17.14-7.51c4.3,3.24,8.22,6.36,12.33,9.21,1.55,1.08,2,2,1.61,3.87-1,4.85-1.86,9.74-2.72,14.63-.17,1-.66,2.15.88,2.58l18.84,5.33c1.33.38,2-.18,2.49-1.47,1.8-4.78,3.82-9.48,5.54-14.29.67-1.86,1.74-2.15,3.49-2.29a118.74,118.74,0,0,0,12.91-1.55c1.83-.35,2.6,0,3.56,1.47,3.09,4.79,6.37,9.46,9.51,14.07,4.52-1,16-7.45,19.85-11.15-2.34-5.3-4.66-10.68-7.12-16-.62-1.33-.33-2,.55-3.09,2.88-3.45,5.5-7.1,8.34-10.58a3,3,0,0,1,2.3-1c4.52.75,9,1.65,13.51,2.55,2.52.5,3.53.72,4.28-.06l5.82-20C2720.71,598.34,2719.56,597.86,2716.47,596.61ZM2679.3,598a33.68,33.68,0,0,1-41.75,22.93h0a33.68,33.68,0,0,1-22.92-41.75h0a33.67,33.67,0,0,1,41.75-22.93h0A33.67,33.67,0,0,1,2679.3,598Z"/><rect class="cls-2" x="2189.59" y="1520.16" width="18.99" height="277.73" transform="translate(4398.17 3318.06) rotate(180)"/><path class="cls-8" d="M1974.8,1726.86s-4.16,43.35-1.43,57.48a53.14,53.14,0,0,0,2.11,6.93c2.82,7.93-4.89,32.13-4.89,32.13l-103.34.36c-5.63,0-1.87-3.39,2.71-6.52,7.5-5.12,13.54-8.49,37.41-19.16,1.55-.7,7.23-4,9.28-5.21,5.19-2.94,10.42-7.6,14.94-12.28,7.52-7.79,8.66-46,8.66-46Z"/><path class="cls-6" d="M1916.66,1792.87c27.24,7,47.5,2.7,58.85-1.51,2.81,7.91,7.65,37.64,4.49,37.64-25.92,0-47.39,1.71-121.64.6-2.66,0-2.33-8.77-.6-10.7C1862.55,1813.58,1914.61,1794,1916.66,1792.87Z"/><path class="cls-8" d="M1857.83,1655s-22.6,37.79-26.26,51.73a53.28,53.28,0,0,0-1.09,7.15c-.88,8.32-18.4,27.28-18.4,27.28l-94.18-40.67c-5.13-2.22-.22-3.83,5.3-4.86,9-1.68,16-2.36,42.35-2.59,1.72,0,8.34-.81,10.71-1,6-.62,12.78-2.78,18.92-5.25,10.23-4.1,27.86-38.4,27.86-38.4Z"/><path class="cls-6" d="M1776.28,1692c21.73,17.19,42,21.31,54.19,22-.88,8.32-7.68,34.76-10.55,33.51-23.58-10.29-45.57-14.72-112.64-45.2-2.4-1.09,1.69-8.91,4.1-10C1718.05,1689.34,1773.9,1692.21,1776.28,1692Z"/><path class="cls-11" d="M2179.26,1332.27v22.27l-219.09,44-54.37,156.14,30.3-19.78-7,240.44,46.08.31S2055,1574,2028.84,1472.51l242.48,3.55s109.89-40.57,53.18-162.88Z"/><path class="cls-24" d="M2179.26,1354.54S1952,1356,1935.85,1367.88,1798.59,1675,1798.59,1675l52.83,18.86s105.09-167.51,110.65-179.46,46.27-99.29,61.81-108.2S2179.26,1354.54,2179.26,1354.54Z"/><path class="cls-2" d="M2299.64,1810.28h-188.7A15.74,15.74,0,0,0,2095.2,1826h0a2.76,2.76,0,0,0,2.76,2.75h214.67a2.75,2.75,0,0,0,2.75-2.75h0A15.74,15.74,0,0,0,2299.64,1810.28Z"/><path class="cls-2" d="M2211.7,1797.89h-23.12a12.39,12.39,0,0,0-12.38,12.39h0a12.38,12.38,0,0,0,12.38,12.38h23.12a12.39,12.39,0,0,0,12.38-12.38h0A12.39,12.39,0,0,0,2211.7,1797.89Z"/><path class="cls-6" d="M2261.09,1039.58s45.71-9,66.57,8.4-4.47,172.36-4.45,198,14.32,98.25,14.32,98.25S2199,1368.53,2177,1330c0,0-6.26-146.9-5.33-165.37s21.47-94,27.15-102.11S2261.09,1039.58,2261.09,1039.58Z"/><path class="cls-8" d="M2261.38,968.87s.24,1.37.67,3.69c2.07,11.16,10.06,48.17,15.45,58.34,6.52,12.3-22.31,51.51-50.06,46.73-8.26-1.43,7-36,6.25-39.7-1.4-7-3.31-16.59-5.25-26.4-1.1-5.54-2.21-11.16-3.25-16.43-3-15-5.39-27.26-5.39-27.26Z"/><path class="cls-3" d="M2262.05,972.56c-.43-2.32-.67-3.69-.67-3.69l-41.58-1s2.42,12.26,5.39,27.26c1,5.25,2.14,10.83,3.23,16.33,6.42-.94,13.13-4,19.85-9.93a52.29,52.29,0,0,0,15-22.32C2262.8,976.56,2262.37,974.29,2262.05,972.56Z"/><path class="cls-8" d="M2233.39,874.55s19.6-2.26,31.89,13.6,25.52,64.89-5,91.55-60.67-3.52-65.14-35.51S2188.93,873.39,2233.39,874.55Z"/><path class="cls-8" d="M2186.11,943.71c3.65,7.07,9.76,11,13.66,8.74s4.11-9.78.47-16.85-9.76-11-13.66-8.74S2182.47,936.65,2186.11,943.71Z"/><path class="cls-11" d="M2231.2,869.31s26.18,46.63,44.91,48.78S2297.3,945,2297.3,945s-6.69-57.1-25.24-68.11S2231.2,869.31,2231.2,869.31Z"/><path class="cls-8" d="M2271.2,929.81c-1.52,8.28,1.54,15.88,6.85,17s10.83-4.74,12.36-13-1.54-15.88-6.85-17S2272.73,921.53,2271.2,929.81Z"/><path class="cls-10" d="M2213.07,962l22.9-1.18s-.07,8.72-10.13,9.53C2213.58,971.31,2213.07,962,2213.07,962Z"/><path class="cls-17" d="M2297.41,1459.41s-225.94,3.86-249.49,0-33.75,25.66-26.72,41.13,26.37,21.44,54.84,22.85,265.43,8.09,272.11,1.76c5.46-5.17,77.29-250.75,103.43-340.56a33.88,33.88,0,0,0-23-42h0a33.9,33.9,0,0,0-42,22.7Z"/><rect class="cls-2" x="469" y="1520.56" width="19.1" height="279.36"/><path class="cls-2" d="M382,1812.38H571.82a15.83,15.83,0,0,1,15.83,15.83h0a2.77,2.77,0,0,1-2.77,2.77H368.94a2.77,2.77,0,0,1-2.76-2.77h0A15.83,15.83,0,0,1,382,1812.38Z"/><path class="cls-2" d="M467.51,1799.93h23.25a12.44,12.44,0,0,1,12.45,12.45h0a12.45,12.45,0,0,1-12.45,12.46H467.51a12.46,12.46,0,0,1-12.46-12.46h0A12.45,12.45,0,0,1,467.51,1799.93Z"/><path class="cls-7" d="M601.52,1488.4,588.46,1434a88.19,88.19,0,0,0-81.88-67.27l-165.41-6.69-5.11-16.84,171.19,6.92a104.89,104.89,0,0,1,97.37,80l13.88,57.77C613.8,1488.13,608.07,1488.28,601.52,1488.4Z"/><path class="cls-25" d="M379.65,1459.45s227.26,3.89,251,0,33.95,25.81,26.88,41.37-26.52,21.57-55.17,23-267,8.13-273.71,1.77c-5.48-5.2-77.74-252.23-104-342.56a34.08,34.08,0,0,1,23.15-42.22h0A34.1,34.1,0,0,1,290,1163.63Z"/><path class="cls-5" d="M1097.45,1118.11H907.86a12.35,12.35,0,0,0-11.44,7.68L838,1268.17H733.52a5.29,5.29,0,0,0-5.3,5.29h0a5.29,5.29,0,0,0,5.3,5.28H1031a20.77,20.77,0,0,0,19-12.26l58.78-130.94A12.37,12.37,0,0,0,1097.45,1118.11Z"/><path class="cls-10" d="M995.37,1201c-1.28,6.4-6.85,10.67-12.46,9.56s-9.1-7.22-7.82-13.61,6.86-10.67,12.46-9.55S996.66,1194.63,995.37,1201Z"/><path class="cls-26" d="M1737.65,1118.11h189.59a12.35,12.35,0,0,1,11.44,7.68l58.38,142.38h104.52a5.29,5.29,0,0,1,5.3,5.29h0a5.29,5.29,0,0,1-5.3,5.28H1804.1a20.77,20.77,0,0,1-18.95-12.26l-58.78-130.94A12.37,12.37,0,0,1,1737.65,1118.11Z"/><path class="cls-10" d="M1839.73,1201c1.28,6.4,6.86,10.67,12.46,9.56s9.1-7.22,7.82-13.61-6.86-10.67-12.46-9.55S1838.45,1194.63,1839.73,1201Z"/><rect class="cls-2" x="697.31" y="1278.74" width="1412.91" height="31.79" rx="4.65" transform="translate(2807.54 2589.27) rotate(180)"/><polygon class="cls-2" points="2039.71 1833.5 2062.34 1833.5 2013.59 1310.53 1990.97 1310.53 2039.71 1833.5"/><polygon class="cls-2" points="1847.48 1833.5 1824.86 1833.5 1873.6 1310.53 1896.23 1310.53 1847.48 1833.5"/><polygon class="cls-2" points="947.33 1833.5 969.95 1833.5 921.21 1310.53 898.58 1310.53 947.33 1833.5"/><path class="cls-27" d="M1661.11,1029.1a32.86,32.86,0,0,1-3.42,8.3C1647.83,1055.34,1625,1081,1625,1081l-17.69-39.87s2.88-12.51,7.89-30.41C1632.24,1015.13,1648.51,1017.72,1661.11,1029.1Z"/><path class="cls-28" d="M1559.66,994.52s98.69,42.5,101.88,41.69c2.06-.52,40.49-64.84,40.9-125.33.19-27.94-28.83-61.54-61.2-54.89-16.29,3.34-16,7.88-40.15,42.91S1559.66,994.52,1559.66,994.52Z"/><path class="cls-8" d="M1475.41,1756.49s2.34,38.76,2.36,38.84c.86,4.92,4.25,17.08,4.25,21.56,0,16.8-79.81-14.27-61.92-21.72,1.62-.67,10.1-5.77,10.63-11.49.82-8.81,2.9-26.64,2.9-26.64Z"/><path class="cls-29" d="M1417.49,1793.77s19.08,5.75,28.85,7.18,22.64-10.65,29.55-7.39c7.61,3.6,7.31,36,7.31,36s-102.29,9.21-131-.31C1340.76,1825.42,1378.5,1807.15,1417.49,1793.77Z"/><path class="cls-8" d="M1638.67,1756.49s2.34,38.76,2.35,38.84c.86,4.92,4.25,17.08,4.25,21.56,0,16.8-79.8-14.27-61.92-21.72,1.62-.67,12.62-9.58,13.15-15.3.82-8.81.39-22.83.39-22.83Z"/><path class="cls-29" d="M1583.69,1793.77s19.07,5.75,28.84,7.18,22.65-10.65,29.56-7.39c7.61,3.6,7.91,36,7.91,36s-102.75,10.74-131.65-.31C1507.13,1824.9,1544.69,1807.15,1583.69,1793.77Z"/><path class="cls-8" d="M1614.28,1050.58,1544,952.12c-.3-.87-.93-2.63-1.91-5.33-3.54-9.77-10.91-30.09-17.32-50.32l-.07-.22c-2-7.06-6.29-19.4-10.43-31.33-4.59-13.26-10.29-29.71-10.49-32.52l1-2.49c2.57-6.69,6.06-22.62,7.29-29.54.79-4.41,1.57-15.14-3.67-15.14-8.25,0-4.32,10.71-8.12,17.4a168.57,168.57,0,0,1-5.71-22.31l-1.38-20.94c-.27-1.58,1.41-13.12-4.37-13.12h-.28c-5.19.38-5.08,12.65-7.23,33.42-.69-2.39-1.37-5.27-1.89-7.92a77.17,77.17,0,0,0-1.75-11c1-5.78.43-14.91-5.73-14-3.09.43-2.83,13.17-2.83,13.17,0,1.75.21,15.21.12,17.87-.64-4.52-3.11-23.79-7.94-23.79-4,0-4.33,5.19-4.25,9.29,0,2.43,2.57,23.31,2.71,25.74-1.89-3.17-4.13-21.57-6-21.57-7.81,0-5,26.16-2.12,33a29.92,29.92,0,0,1,.89,3.65c1,4.66,2.61,12.46,6.71,19.46,4.9,8.4,11.67,21.75,12.71,23.8.75,4.17,3.11,19.16,6.06,38,1.27,8.07,2.66,16.93,4.1,26.09h.08c.27,2,1.73,8.3,7.29,32,7.61,32.39,8.4,33.79,8.74,34.39,3.3,5.84,79.08,108.76,82.31,113.13l1.9,2.59Z"/><path class="cls-3" d="M1483.54,820.93s5.71-14.58,15.87-14.61a11.68,11.68,0,0,0-10.54,1.8C1484,812,1483.54,820.93,1483.54,820.93Z"/><path class="cls-8" d="M1631.26,792.75l9,57.22s-34.48,27.68-54.58,21.84c-16.86-4.9-5.3-26.94-5.3-26.94s9-30.55,6.23-46.56S1631.26,792.75,1631.26,792.75Z"/><path class="cls-30" d="M1624.76,810.05c-8.64,4.08-25.72,9.65-39,11,1.27-8,2-16.47.92-22.73-1.27-7.39,8.13-9.14,18.63-8.89,13.73,1.18,26,3.33,26,3.33l1.74,11A28.33,28.33,0,0,1,1624.76,810.05Z"/><path class="cls-8" d="M1674.77,726.74c1.42,0-13.63,63.93-36.92,74.93s-58,5.26-64.55-11.95c-7.21-19.05,19.09-84.26,51.85-92.55S1674.77,726.74,1674.77,726.74Z"/><path class="cls-2" d="M1647.81,668a73.29,73.29,0,0,1,30,33.16c8.73,4.15,19.3,13.11,24.37,37.26,6.24,29.69-15.93,52.58-39.44,59.47s-27.14,22.44-27.14,22.44L1633,803.6s5.22-14.58,13.09-21.87-3.73-17.93-4.75-26.6c-.78-6.67,4.14-19.64,3.07-30.59,0,0-13.06-19.8-25.94-24.69C1596.48,691.51,1623.94,654.24,1647.81,668Z"/><path class="cls-8" d="M1637.91,766.26c-3,7.39-1.8,14.72,2.78,16.37s10.76-3,13.81-10.36,1.79-14.71-2.78-16.37S1641,758.88,1637.91,766.26Z"/><path class="cls-27" d="M1551.15,1052.16l-135.58-22.1s15.43-38.84,20.94-38.84S1539,1033.57,1539,1033.57l7.72,15.49Z"/><path class="cls-26" d="M1620.59,1145.12s13.53,65.38,8,115-5.95,225.69-5.95,225.69l21,281.78-49.91,1.09s-59.17-281.65-58.07-274.42-19.84-198.31-19.84-198.31l70.54-157Z"/><path class="cls-5" d="M1607.37,1142s8.82,58.87-2.21,84.69-94.54,279.18-95.65,299.83-28.87,249-28.87,249l-58-1.63L1410.05,1520l26.29-319,25.52-80.66Z"/><path class="cls-8" d="M1640.31,850s-14.31,9.39-27.66,8.3-32.22-13.4-32.22-13.4l2.63-8.89s34.52-5,35.39-4.49S1640.31,850,1640.31,850Z"/><path class="cls-27" d="M1487.79,989.31s-51.28,48.39-74.43,40.13-32.73-36.51,23.76-77.83C1487.66,914.63,1487.79,989.31,1487.79,989.31Z"/><path class="cls-11" d="M1453,1049.06c7.62-41.44,62.84-170.42,67.25-194.17,2.14-11.56,31.92-11.81,60.29-10.3,30,1.59,59.73,5.38,59.73,5.38s26.52,4.36,38.19,15.29,14.77,41.18-2,98.59c-13.25,45.32-29.67,70.2-37.79,103.21-1.65,11.07-3,22-4.92,34.76-3,49.36,0,114.56,0,114.56s-144.4,30-198.41-15.49C1435.41,1200.89,1445.24,1091.53,1453,1049.06Z"/><path class="cls-28" d="M1416.23,960s56.66,46.77,60,46.77c2.13,0,80.86-57.92,99-105.5,10-26.3-11-55.73-35.09-55.63-16.69.07-24.1,4.37-57.17,32.25S1416.23,960,1416.23,960Z"/><polygon class="cls-2" points="755.1 1833.5 732.48 1833.5 781.22 1310.53 803.84 1310.53 755.1 1833.5"/><rect class="cls-18" x="303.06" y="1829.03" width="2138.77" height="9.01" rx="4.08"/><path class="cls-8" d="M2058.39,1191.49c-1.58-4.57,20.64-8.18,21.84-12.8s-28-5.07-29.05-9.13c-1.9-7.48,32-1.46,31.37-5s-35.34-11.43-31.56-17.41,35.1,12,36.06,7.91-30.63-14.08-30-23c.32-4.77,51.84,24,57.84,21.39s-6.35-25-1.58-28.34,18.29,45.62,21.58,47.26,72.88,41.69,97.67,48.1c3-8.3,24.85-52.29,27.53-60.14,13.89,10,30,12.18,44.37,21.26-10.5,26-46.49,90.16-53.76,93.41-22.12,9.9-107.28-61.23-124.28-73.41s-26.8-8.3-38.33-12.17S2060,1196.06,2058.39,1191.49Z"/><path class="cls-12" d="M2311.08,1188.63s30.13-66.8,34.71-92.73-17.67-58.47-41-56.37S2246.6,1157,2246.6,1157Z"/><path class="cls-10" d="M1579.36,768.63l21.23,9.56s-4.12,7.84-13.58,3.91C1575.48,777.3,1579.36,768.63,1579.36,768.63Z"/><path class="cls-15" d="M2624.57,852.18c-5.15-4.67-10.45-9.16-15.5-13.93a5,5,0,0,1-1.26-4.07c1.88-7.82,4.22-15.54,6.05-23.37.54-2.28,1.24-3.41,3.58-4,8.24-1.92,16.43-4.06,24.64-6.13,1.33-.33,2.65-.71,5-1.34-2-12.43-3.93-24.71-5.93-37.31-10.26.54-19.6.87-28.9,1.59-3.28.25-5-.37-6.58-3.61-3.31-6.62-7.54-12.78-11.2-19.24a4.59,4.59,0,0,1,0-3.82c4.21-7.48,8.41-15,13.07-22.19,2.23-3.46,1.67-5.58-1.4-7.78a23.91,23.91,0,0,1-3.07-3.2l-15.85-11.74a11.31,11.31,0,0,1-2.09-.76c-6.57-3.87-5.23-3.62-10.05,1.64-5.87,6.41-11.63,12.92-16.67,18.53l-30.63-7.4c-2.54-10.06-5.19-20.58-7.86-31.17-12.86-.13-25,2.16-37.19,5.91.55,10.09,1.06,19.93,1.64,29.77.1,1.76-.15,2.79-2,3.8-7.29,4-14.48,8.12-21.48,12.58-2,1.28-3.17,1.12-5,0-7.47-4.5-15.05-8.82-22.53-13.29-1.86-1.11-3.15-1.23-4.9.49-7.83,7.73-13.72,16.79-18.87,26.42-1,1.91-.18,2.92,1.2,4.13,6.36,5.58,12.59,11.32,19,16.86,1.84,1.6,2.3,2.81,1.51,5.38-2.72,8.88-4.92,17.91-7.51,27.61l-29.91,7.53a112.44,112.44,0,0,0,5.59,37.67l31.41-1.85c4.9,7.62,9.26,14.82,14.08,21.71,1.81,2.6,2,4.39.28,7-4.45,7-8.61,14.28-12.82,21.49-.83,1.42-2.29,3-.11,4.59l26.6,19.39c1.88,1.38,3.27.88,4.78-.87,5.64-6.49,11.56-12.73,17.08-19.31,2.13-2.54,4-2.38,6.84-1.57a197.25,197.25,0,0,0,21.26,5.07c3.1.52,4.12,1.49,4.76,4.4,2.09,9.36,4.53,18.63,6.79,27.74,7.69,1.11,29.59-2.42,37.81-6-.6-9.72-1.12-19.56-1.91-29.38-.2-2.45.66-3.37,2.68-4.54,6.54-3.77,12.81-8,19.31-11.83a5,5,0,0,1,4.2-.19c6.7,3.81,13.26,7.85,19.83,11.9,3.67,2.26,5.14,3.18,6.79,2.39l20.82-28.13C2630.26,857.38,2628.73,856,2624.57,852.18Zm-59.41-19.53A56.63,56.63,0,0,1,2486,844.48h0a56.63,56.63,0,0,1-11.83-79.22h0a56.64,56.64,0,0,1,79.22-11.82h0a56.63,56.63,0,0,1,11.82,79.21Z"/></svg>