<svg xmlns="http://www.w3.org/2000/svg" viewBox="0 0 750 500"><defs><style>.cls-1{fill:#e89876;}.cls-2{fill:#fbc250;}.cls-3{fill:#508cfb;}.cls-4{fill:#fb5050;}.cls-5,.cls-6{fill:#1e0b02;}.cls-12,.cls-5,.cls-8{stroke:#1e0b02;}.cls-10,.cls-12,.cls-5,.cls-9{stroke-miterlimit:10;}.cls-5{stroke-width:0.25px;}.cls-10,.cls-12,.cls-7,.cls-8,.cls-9{fill:none;}.cls-7{stroke:#693926;stroke-width:0.66px;}.cls-12,.cls-7,.cls-8{stroke-linecap:round;}.cls-7,.cls-8{stroke-linejoin:round;}.cls-8{stroke-width:0.91px;}.cls-9{stroke:#fbc250;}.cls-10{stroke:#fff;}.cls-11,.cls-13{fill:#fff;}.cls-11{opacity:0.62;}</style></defs><title>intership</title><g id="OBJECTS"><path class="cls-1" d="M311.06,402.59c0,3.39-4.49,6.15-10,6.15s-10-2.76-10-6.15,4.49-6.15,10-6.15S311.06,399.19,311.06,402.59Z"/><path class="cls-2" d="M276.08,448.12H55.53V267.22c8.14-.58,44.68-1.71,62.93,36.3,24.8,51.67-5.72,98.59,45.56,71.63C220.5,345.47,274.25,403.55,276.08,448.12Z"/><path class="cls-3" d="M199,302.3l41.51,72.37,56.75,20.25-16.28,34.19s-92.27-38.45-93.41-38.83S199,302.3,199,302.3Z"/><path class="cls-4" d="M156.61,184.35a19.88,19.88,0,0,1-2.87,10.32c-.25.4-.5.78-.76,1.15a20,20,0,0,1-34.73-3.74,19.69,19.69,0,0,1-1.56-7.73,20,20,0,0,1,17.07-19.76q.68-.1,1.35-.15t1.53-.06A20,20,0,0,1,156.61,184.35Z"/><path class="cls-4" d="M195.73,157.56a18.25,18.25,0,0,1-32.81,11c-.11-.14-.21-.27-.31-.42a18.29,18.29,0,0,1-2.88-14.84c0-.14.06-.27.1-.41a18.26,18.26,0,0,1,15.07-13.4l.42-.06a17.16,17.16,0,0,1,2.16-.13,18.26,18.26,0,0,1,3.86.42l.5.11a18.26,18.26,0,0,1,13.89,17.33Z"/><path class="cls-5" d="M181.84,139.83l-.5-.12a19.94,19.94,0,0,1-18,28.45l-.72,0,.31.42h.41a20.33,20.33,0,0,0,18.51-28.74Z"/><path class="cls-6" d="M148.9,195.13a18.66,18.66,0,0,1-14.23-30.75c-.45,0-.9.07-1.35.14A19.63,19.63,0,0,0,148.9,196.1a19,19,0,0,0,3.64-.35c.26-.37.51-.75.75-1.15A18.14,18.14,0,0,1,148.9,195.13Z"/><path class="cls-4" d="M215.91,447.82H89.85A274.31,274.31,0,0,1,111.46,407a3.84,3.84,0,0,1,3.35-1.7L190,408.57a3.86,3.86,0,0,1,2.83,1.46C201.71,421.32,209.43,434.62,215.91,447.82Z"/><path class="cls-3" d="M200.22,344.66l-16.86,63.2a19.64,19.64,0,0,1-19.83,14.56L129,420.9a19.64,19.64,0,0,1-18.36-15.63s-12-72.57-11.72-77.71c1.9-34.72,30.61-46.24,58.38-43.61l32.2,3.05C217.73,290.9,205.13,326.26,200.22,344.66Z"/><line class="cls-7" x1="162.22" y1="436.33" x2="150.24" y2="435.97"/><path class="cls-1" d="M168.6,238.13A15.51,15.51,0,1,1,151,225,15.51,15.51,0,0,1,168.6,238.13Z"/><path class="cls-4" d="M219.59,195.47c-3.22-21.95-12.39-40.84-48.42-33.5-23.3,4.75-40,24.05-36.75,46s24.9,37,48.42,33.5"/><path class="cls-1" d="M155,221a108.82,108.82,0,0,0,8.07,28.21c2.95,6.7,9.14,10.79,17.47,13.61l1.52.52a32.15,32.15,0,0,0,27.24-3.61h0c7.86-5.22,13-11.38,13.76-19.12a158.48,158.48,0,0,0-.4-29.19s-1.82-31.84-38.22-26.1S155,221,155,221Z"/><line class="cls-8" x1="262.99" y1="216.17" x2="267.1" y2="221.1"/><line class="cls-8" x1="283.93" y1="216.17" x2="279.81" y2="221.1"/><line class="cls-8" x1="273.45" y1="212.25" x2="273.44" y2="218.67"/><path class="cls-8" d="M146,240.12c-.29-.21,9.92-2.79,9.92-2.79l-2.37,7.07"/><circle class="cls-9" cx="322.55" cy="441.32" r="13.84" transform="translate(-183.98 646.83) rotate(-75.92)"/><circle class="cls-10" cx="57.68" cy="364.88" r="24.59"/><line class="cls-9" x1="373.65" y1="420.27" x2="373.65" y2="429.88"/><line class="cls-9" x1="378.33" y1="425.08" x2="368.72" y2="425.08"/><line class="cls-10" x1="73.18" y1="299.03" x2="73.18" y2="308.64"/><line class="cls-10" x1="77.47" y1="303.84" x2="68.36" y2="303.84"/><path class="cls-9" d="M124.81,272.14a5.71,5.71,0,1,1-5.71-5.71A5.71,5.71,0,0,1,124.81,272.14Z"/><path class="cls-6" d="M121.31,498.33l-12.09-12.09a14.32,14.32,0,0,1,0-20.26L217.89,357.31a14.32,14.32,0,0,1,20.26,0l12.09,12.09a14.33,14.33,0,0,1,0,20.26L141.57,498.33A14.33,14.33,0,0,1,121.31,498.33Z"/><path class="cls-4" d="M150.57,221.19c1.19.6,82.77-17,82.77-17s-6.28-47.81-52.59-43.63C153.37,163,150.57,221.19,150.57,221.19Z"/><path class="cls-1" d="M162.77,242.08c-.17.51-4.72,27.94-7.52,41.66a15.17,15.17,0,0,0,12.38,18h0A15.18,15.18,0,0,0,185,290l7.47-40.16Z"/><path class="cls-6" d="M311.34,184.82a109.4,109.4,0,1,0,109.4,109.4A109.4,109.4,0,0,0,311.34,184.82Zm0,190.07A80.67,80.67,0,1,1,392,294.22,80.76,80.76,0,0,1,311.34,374.89Z"/><path class="cls-11" d="M392,294.22a80.67,80.67,0,1,1-80.66-80.67A80.75,80.75,0,0,1,392,294.22Z"/><path class="cls-9" d="M383.72,234.32a93.56,93.56,0,1,1-72.19-34"/><polygon class="cls-3" points="211.67 387.63 154.06 375.92 126.43 421.05 191.34 431.65 211.67 387.63"/><path class="cls-12" d="M207.82,178a46,46,0,0,1,14.35,26.39"/><path class="cls-12" d="M194.1,184.83a40.77,40.77,0,0,1,12.72,23.37"/><path class="cls-8" d="M167.69,254.05s10,9.91,22,11"/><path class="cls-6" d="M187,230.14c0,2.9-1.75,5.26-3.9,5.26s-3.91-2.36-3.91-5.26a6.86,6.86,0,0,1,.09-1.12,5.84,5.84,0,0,1,1.21-2.79,3.4,3.4,0,0,1,2.61-1.35C185.26,224.88,187,227.24,187,230.14Z"/><path class="cls-6" d="M218.25,224.07c0,2.91-1.75,5.26-3.91,5.26s-3.91-2.35-3.91-5.26a6.29,6.29,0,0,1,.13-1.32,5.67,5.67,0,0,1,1.17-2.59,3.42,3.42,0,0,1,2.61-1.34C216.5,218.82,218.25,221.17,218.25,224.07Z"/><path class="cls-13" d="M211.59,240.91a12,12,0,0,1-22.78,4.61Z"/><path class="cls-8" d="M311.16,223.9a71.69,71.69,0,0,1,71.69,71.69"/><polyline class="cls-8" points="143.16 339.58 145.45 374.66 211.79 387.37"/><path class="cls-5" d="M175.32,139.43l-.42.06a10,10,0,0,1,2.12,6.18,10.11,10.11,0,0,1-17.19,7.22c0,.14-.07.27-.1.41a10.47,10.47,0,0,0,15.59-13.87Z"/><path class="cls-8" d="M201.38,220c.27.27,4.64,13.47,4.64,13.47l-7.94,1.42"/><path class="cls-8" d="M179.4,217.85s-4.41,2-5.64,8.24"/><path class="cls-8" d="M212.81,210.69s4.28.5,6.11,3.66"/><path class="cls-13" d="M183.13,229.29l-3.84-.27a5.84,5.84,0,0,1,1.21-2.79Z"/><path class="cls-13" d="M214.18,223l-3.62-.26a5.67,5.67,0,0,1,1.17-2.59Z"/><polyline class="cls-8" points="136.14 379.73 145.45 374.66 143.67 383.7"/><path class="cls-1" d="M192.38,429.51l14.09,3,0,1A2.12,2.12,0,0,0,210,435l23.27-20.22a6.09,6.09,0,0,0,2-5.51l-.26-1.81a15.05,15.05,0,0,0-11.19-12.35L210.74,390Z"/><path class="cls-1" d="M210.75,389.85c0-.24,9.44-3.06,13.71-4.31a4,4,0,0,1,4.71,2.09h0a4,4,0,0,1-1.07,4.87l-8,6.51-11.41-4.61Z"/><path class="cls-1" d="M288.37,413.07l13.16,7.47a7.89,7.89,0,0,0,5.22.52l23.06-5.58a10.6,10.6,0,0,0,7.5-6.75l3.22-9a4.37,4.37,0,0,0-4.72-5.81L313,397.06a6.6,6.6,0,0,0-4.52,2.77l-3.21,4.77-12.13-1.52Z"/><path class="cls-8" d="M210.75,389.85c.26.13,13.86,5.47,13.86,5.47"/><path class="cls-1" d="M325.59,397.22a4.24,4.24,0,1,1-4.24-4.23A4.24,4.24,0,0,1,325.59,397.22Z"/><path class="cls-1" d="M229.59,419.86a4.42,4.42,0,1,1-4.42-4.42A4.42,4.42,0,0,1,229.59,419.86Z"/><path class="cls-1" d="M235,410a4.73,4.73,0,1,1-6.53-1.43A4.73,4.73,0,0,1,235,410Z"/><circle class="cls-1" cx="218.19" cy="427.03" r="4.24"/><circle class="cls-1" cx="210.28" cy="432.12" r="4.24"/><circle class="cls-1" cx="329.55" cy="395.93" r="4.24"/><circle class="cls-1" cx="313.48" cy="399.49" r="4.24"/><line class="cls-8" x1="317.62" y1="394.54" x2="312.3" y2="409.82"/><line class="cls-8" x1="326.36" y1="391.96" x2="320.72" y2="409"/><line class="cls-8" x1="333.88" y1="393.37" x2="329.04" y2="408.07"/><line class="cls-8" x1="311.83" y1="393.99" x2="302.82" y2="409.6"/><path class="cls-8" d="M198.16,334.73s3.43,42.32,3.43,41.08"/><path class="cls-8" d="M207.09,421.5l5.71,2.18a2.51,2.51,0,0,1,1.59,2l.66,5.34"/><path class="cls-8" d="M214.25,414l3.49,1.54a7,7,0,0,1,4.07,5.35l.55,3.64"/><path class="cls-8" d="M221.1,405.54l2.56,1a8.52,8.52,0,0,1,5.2,6.31l.94,5"/></g></svg>