<svg id="Calque_1" data-name="Calque 1" xmlns="http://www.w3.org/2000/svg" viewBox="0 0 200 220"><defs><style>.cls-1{fill:#403569;opacity:0.3;}.cls-2{fill:#fffdfe;}.cls-3{fill:#d2ced5;}.cls-4{fill:#6fa7db;}.cls-5{fill:#add291;}.cls-6{fill:#2d5535;}.cls-7{fill:#63aa52;}.cls-8{fill:#f8ac51;}.cls-10,.cls-9{fill:#8e8395;}.cls-10{font-size:18.3px;font-family:BubaDEMO-Outline, Buba DEMO;}.cls-11{letter-spacing:-0.02em;}</style></defs><title>news</title><path class="cls-1" d="M29.17,82.94l119.52-43a4.55,4.55,0,0,1,5.76,2.57l31.61,77.88a12,12,0,0,1-7,15.82L63.91,178.46a14.83,14.83,0,0,1-18.54-7.6L18,112.82a5.14,5.14,0,0,1,2.73-7l10.73-4.34-5-12.63A4.57,4.57,0,0,1,29.17,82.94Z"/><path class="cls-2" d="M32,73.45,151.47,30.39A4.56,4.56,0,0,1,157.23,33l31.61,77.88a12,12,0,0,1-7,15.82L66.69,169a14.83,14.83,0,0,1-18.55-7.6l-27.38-58a5.14,5.14,0,0,1,2.73-7L34.22,92l-5-12.63A4.54,4.54,0,0,1,32,73.45Z"/><path class="cls-3" d="M34.22,92,23.49,96.36a5.14,5.14,0,0,0-2.73,7l27.38,58a14.82,14.82,0,0,0,5.39,6.15c11.72-2.12,4.88-18.82,4.88-18.82Z"/><rect class="cls-4" x="55.85" y="99.44" width="41.87" height="41.87" transform="translate(-39.44 37.44) rotate(-21.96)"/><rect class="cls-5" x="60.89" y="125.44" width="41.87" height="14.89" transform="translate(-43.75 40.24) rotate(-21.96)"/><polygon class="cls-6" points="66.31 126.11 94.14 107.43 98.46 118.16 68.04 130.42 66.31 126.11"/><polygon class="cls-7" points="76.46 127.02 56.16 125.2 59.63 133.81 76.46 127.02"/><path class="cls-8" d="M70.7,112.73A5.16,5.16,0,1,1,64,109.87,5.17,5.17,0,0,1,70.7,112.73Z"/><rect class="cls-9" x="91.96" y="85.57" width="30.99" height="3.37" transform="translate(-24.83 46.51) rotate(-21.96)"/><rect class="cls-9" x="94.83" y="92.69" width="30.99" height="3.37" transform="translate(-27.29 48.1) rotate(-21.96)"/><rect class="cls-9" x="97.7" y="99.81" width="30.99" height="3.37" transform="translate(-29.74 49.69) rotate(-21.96)"/><rect class="cls-9" x="100.57" y="106.92" width="30.99" height="3.37" transform="translate(-32.19 51.28) rotate(-21.96)"/><rect class="cls-9" x="103.42" y="114.01" width="30.99" height="3.37" transform="translate(-34.63 52.86) rotate(-21.96)"/><rect class="cls-9" x="106.29" y="121.13" width="30.99" height="3.37" transform="translate(-37.09 54.45) rotate(-21.96)"/><rect class="cls-9" x="128.4" y="70.88" width="30.99" height="3.37" transform="translate(-16.69 59.07) rotate(-21.96)"/><rect class="cls-9" x="131.27" y="78" width="30.99" height="3.37" transform="translate(-19.15 60.66) rotate(-21.96)"/><rect class="cls-9" x="134.14" y="85.11" width="30.99" height="3.37" transform="translate(-21.6 62.25) rotate(-21.96)"/><rect class="cls-9" x="137.01" y="92.23" width="30.99" height="3.37" transform="translate(-24.05 63.84) rotate(-21.96)"/><rect class="cls-9" x="139.87" y="99.32" width="30.99" height="3.37" transform="translate(-26.5 65.42) rotate(-21.96)"/><rect class="cls-9" x="142.74" y="106.43" width="30.99" height="3.37" transform="translate(-28.95 67.01) rotate(-21.96)"/><rect class="cls-9" x="111.65" y="134.42" width="30.99" height="3.37" transform="matrix(0.93, -0.37, 0.37, 0.93, -41.67, 57.41)"/><rect class="cls-9" x="68.74" y="151.72" width="30.99" height="3.37" transform="translate(-51.25 42.62) rotate(-21.96)"/><rect class="cls-9" x="42.21" y="77.61" width="116.55" height="3.37" transform="translate(-22.36 43.33) rotate(-21.96)"/><rect class="cls-9" x="148.1" y="119.72" width="30.99" height="3.37" transform="translate(-33.53 69.98) rotate(-21.96)"/><text class="cls-10" transform="matrix(0.93, -0.37, 0.37, 0.93, 43.01, 92.55)">N<tspan class="cls-11" x="14.43" y="0">e</tspan><tspan x="26.06" y="0">ws</tspan></text><polygon class="cls-9" points="42.32 132.34 50.09 129.2 48.77 126.11 41.06 129.21 42.32 132.34"/><polygon class="cls-9" points="45.17 139.42 53.09 136.23 51.77 133.13 43.91 136.3 45.17 139.42"/><polygon class="cls-9" points="39.45 125.22 47.08 122.14 45.75 119.05 38.19 122.1 39.45 125.22"/><polygon class="cls-9" points="33.71 110.98 41.05 108.03 39.73 104.93 32.45 107.86 33.71 110.98"/><polygon class="cls-9" points="54.78 140.19 46.78 143.42 48.04 146.54 56.11 143.29 54.78 140.19"/><polygon class="cls-9" points="36.58 118.1 44.06 115.08 42.74 111.99 35.32 114.98 36.58 118.1"/></svg>