<svg width="25" height="26" viewBox="0 0 25 26" fill="none" xmlns="http://www.w3.org/2000/svg">
<path d="M22.0577 14.2729C22.1113 13.8667 22.138 13.4469 22.138 13C22.138 12.5667 22.1113 12.1333 22.0443 11.7271L24.7617 9.5875C25.0027 9.39792 25.0696 9.03229 24.9224 8.76146L22.3522 4.26562C22.1916 3.96771 21.8569 3.87292 21.5624 3.96771L18.3631 5.26771C17.6938 4.75312 16.9844 4.31979 16.1946 3.99479L15.7127 0.555208C15.6591 0.230208 15.3914 0 15.0701 0H9.92986C9.60859 0 9.35425 0.230208 9.30071 0.555208L8.8188 3.99479C8.02902 4.31979 7.30617 4.76667 6.65025 5.26771L3.45095 3.96771C3.15646 3.85937 2.8218 3.96771 2.66117 4.26562L0.104413 8.76146C-0.0562214 9.04583 -0.00267692 9.39792 0.265046 9.5875L2.98244 11.7271C2.91551 12.1333 2.86196 12.5802 2.86196 13C2.86196 13.4198 2.88873 13.8667 2.95567 14.2729L0.238274 16.4125C-0.0026769 16.6021 -0.0696076 16.9677 0.0776402 17.2385L2.64778 21.7344C2.80842 22.0323 3.14307 22.1271 3.43757 22.0323L6.63686 20.7323C7.30617 21.2469 8.01563 21.6802 8.80542 22.0052L9.28732 25.4448C9.35425 25.7698 9.60859 26 9.92986 26H15.0701C15.3914 26 15.6591 25.7698 15.6993 25.4448L16.1812 22.0052C16.971 21.6802 17.6938 21.2469 18.3498 20.7323L21.549 22.0323C21.8435 22.1406 22.1782 22.0323 22.3388 21.7344L24.909 17.2385C25.0696 16.9406 25.0027 16.6021 24.7483 16.4125L22.0577 14.2729ZM12.5 17.875C9.84954 17.875 7.68098 15.6812 7.68098 13C7.68098 10.3188 9.84954 8.125 12.5 8.125C15.1505 8.125 17.319 10.3188 17.319 13C17.319 15.6812 15.1505 17.875 12.5 17.875Z" fill="white"/>
</svg>
